<svg width="124" height="41" viewBox="0 0 124 41" fill="none" xmlns="http://www.w3.org/2000/svg">
<g clip-path="url(#clip0_2124_278)">
<path d="M115.807 12.9732L108.958 11.3821L107.736 10.8926L76.3076 11.1374V26.3135L115.807 26.4359V12.9732Z" fill="white"/>
<path d="M102.966 24.9672C103.163 24.4459 103.232 23.8851 103.169 23.3316C103.105 22.7781 102.91 22.2478 102.599 21.7851C102.281 21.4028 101.89 21.0871 101.449 20.8561C101.009 20.6251 100.527 20.4833 100.031 20.4388L78.7533 20.194C78.6311 20.194 78.5088 20.0717 78.3865 20.0717C78.358 20.0503 78.3349 20.0226 78.319 19.9907C78.303 19.9588 78.2948 19.9237 78.2948 19.8881C78.2948 19.8525 78.303 19.8173 78.319 19.7855C78.3349 19.7536 78.358 19.7259 78.3865 19.7045C78.5088 19.4597 78.6311 19.3373 78.8756 19.3373L100.276 19.0926C101.635 18.9417 102.929 18.4313 104.025 17.6139C105.121 16.7965 105.98 15.7016 106.513 14.4418L107.736 11.2597C107.736 11.1373 107.858 11.0149 107.736 10.8926C107.071 7.92883 105.457 5.26332 103.141 3.30107C100.824 1.33882 97.9305 0.187089 94.9001 0.0209001C91.8696 -0.145289 88.8678 0.683145 86.3507 2.38032C83.8336 4.07749 81.9389 6.55062 80.9545 9.4239C79.6766 8.51044 78.1178 8.07708 76.5522 8.20002C75.1154 8.36035 73.7758 9.00503 72.7535 10.0281C71.7313 11.0512 71.0871 12.3919 70.9269 13.8299C70.8455 14.5659 70.8868 15.3104 71.0492 16.0329C68.7244 16.0972 66.5165 17.0667 64.895 18.7352C63.2735 20.4038 62.3664 22.6396 62.3668 24.9672C62.3467 25.4194 62.3878 25.8723 62.489 26.3134C62.4947 26.409 62.5351 26.4992 62.6027 26.5668C62.6704 26.6345 62.7604 26.675 62.8559 26.6806H102.11C102.355 26.6806 102.599 26.5582 102.599 26.3134L102.966 24.9672Z" fill="#F48120"/>
<path d="M109.692 11.2598H109.081C108.959 11.2598 108.836 11.3822 108.714 11.5045L107.858 14.4419C107.661 14.9631 107.592 15.5239 107.656 16.0774C107.719 16.631 107.915 17.1612 108.225 17.6239C108.543 18.0063 108.934 18.322 109.375 18.553C109.816 18.784 110.297 18.9258 110.793 18.9702L115.318 19.215C115.44 19.215 115.562 19.3374 115.684 19.3374C115.713 19.3588 115.736 19.3865 115.752 19.4183C115.768 19.4502 115.776 19.4853 115.776 19.521C115.776 19.5566 115.768 19.5917 115.752 19.6236C115.736 19.6554 115.713 19.6832 115.684 19.7045C115.562 19.9493 115.44 20.0717 115.195 20.0717L110.548 20.3165C109.19 20.4674 107.896 20.9778 106.8 21.7952C105.703 22.6126 104.845 23.7075 104.312 24.9672L104.067 26.0687C103.945 26.1911 104.067 26.4359 104.312 26.4359H120.454C120.503 26.443 120.554 26.4384 120.602 26.4225C120.65 26.4066 120.693 26.3797 120.729 26.3441C120.764 26.3085 120.791 26.265 120.807 26.2172C120.823 26.1694 120.828 26.1186 120.82 26.0687C121.112 25.0317 121.276 23.9632 121.31 22.8866C121.29 19.809 120.06 16.8629 117.886 14.6866C115.711 12.5104 112.767 11.2792 109.692 11.2598Z" fill="#FAAD3F"/>
<path d="M122.899 33.2894C122.682 33.2894 122.469 33.2248 122.288 33.1037C122.107 32.9827 121.966 32.8107 121.883 32.6094C121.799 32.4081 121.778 32.1867 121.82 31.973C121.863 31.7593 121.967 31.5631 122.121 31.409C122.275 31.255 122.471 31.1501 122.685 31.1076C122.898 31.0651 123.12 31.0869 123.321 31.1702C123.522 31.2536 123.694 31.3948 123.815 31.5759C123.936 31.7571 124 31.97 124 32.1879C124.001 32.3327 123.973 32.4762 123.918 32.6101C123.862 32.744 123.781 32.8657 123.679 32.9681C123.577 33.0705 123.455 33.1516 123.321 33.2068C123.188 33.2619 123.044 33.29 122.899 33.2894ZM122.899 31.3312C122.73 31.3312 122.565 31.3814 122.424 31.4755C122.283 31.5697 122.173 31.7035 122.109 31.86C122.044 32.0166 122.027 32.1888 122.06 32.355C122.093 32.5212 122.174 32.6739 122.294 32.7937C122.414 32.9135 122.566 32.9951 122.732 33.0281C122.899 33.0612 123.071 33.0442 123.227 32.9794C123.383 32.9145 123.517 32.8047 123.611 32.6638C123.705 32.523 123.755 32.3573 123.755 32.1879C123.758 32.0746 123.738 31.962 123.696 31.8568C123.654 31.7516 123.591 31.6561 123.511 31.5759C123.431 31.4958 123.335 31.4328 123.23 31.3908C123.125 31.3487 123.013 31.3284 122.899 31.3312ZM123.389 32.7998H123.144L122.899 32.4327H122.655V32.7998H122.41V31.6983H123.022C123.072 31.6912 123.122 31.6958 123.17 31.7117C123.218 31.7277 123.261 31.7545 123.297 31.7901C123.333 31.8257 123.359 31.8692 123.375 31.917C123.391 31.9648 123.396 32.0156 123.389 32.0655C123.389 32.1879 123.266 32.3103 123.144 32.4327L123.389 32.7998ZM123.022 32.1879C123.144 32.1879 123.144 32.1879 123.144 32.0655C123.144 32.0493 123.141 32.0333 123.135 32.0183C123.129 32.0033 123.12 31.9896 123.109 31.9782C123.098 31.9668 123.084 31.9578 123.069 31.9517C123.054 31.9457 123.038 31.9428 123.022 31.9431H122.655V32.3103H123.022V32.1879ZM13.3295 31.0864H16.0198V38.4297H20.6667V40.755H13.3295V31.0864ZM23.4794 35.8595C23.4794 35.1797 23.6173 34.507 23.8847 33.882C24.1522 33.2571 24.5435 32.693 25.0351 32.2239C25.5267 31.7547 26.1084 31.3903 26.7448 31.1527C27.3813 30.9152 28.0592 30.8093 28.7378 30.8416C29.4099 30.8113 30.0812 30.9194 30.7099 31.1593C31.3386 31.3991 31.9115 31.7656 32.3929 32.236C32.8744 32.7064 33.2543 33.2707 33.509 33.894C33.7637 34.5173 33.8879 35.1863 33.8738 35.8595C33.8738 36.5394 33.7359 37.2121 33.4685 37.837C33.2011 38.462 32.8097 39.0261 32.3181 39.4952C31.8265 39.9643 31.2448 40.3287 30.6084 40.5663C29.972 40.8039 29.294 40.9097 28.6155 40.8774C27.9459 40.8974 27.2792 40.7821 26.6551 40.5385C26.031 40.295 25.4623 39.9281 24.983 39.4598C24.5036 38.9915 24.1235 38.4313 23.8651 37.8128C23.6068 37.1942 23.4756 36.5299 23.4794 35.8595ZM31.1835 35.8595C31.2075 35.5202 31.1625 35.1796 31.0512 34.8582C30.9399 34.5369 30.7646 34.2414 30.536 33.9897C30.3074 33.7381 30.0302 33.5354 29.7211 33.394C29.412 33.2526 29.0775 33.1753 28.7378 33.167C28.0783 33.1992 27.4566 33.484 27.0013 33.9625C26.546 34.441 26.292 35.0764 26.292 35.7371C26.292 36.3979 26.546 37.0333 27.0013 37.5118C27.4566 37.9902 28.0783 38.2751 28.7378 38.3073C30.2052 38.5521 31.1835 37.3282 31.1835 35.8595ZM37.1756 36.4715V31.0864H39.866V36.4715C39.866 37.8177 40.5997 38.5521 41.7003 38.5521C41.9573 38.5734 42.2159 38.5364 42.4566 38.4437C42.6973 38.351 42.914 38.205 43.0904 38.0167C43.2668 37.8284 43.3984 37.6026 43.4753 37.3562C43.5522 37.1098 43.5725 36.8492 43.5346 36.5939V31.0864H46.2249V36.4715C46.2249 39.6536 44.3906 40.9998 41.7003 40.9998C38.8876 40.8774 37.1756 39.5312 37.1756 36.4715ZM50.2604 31.0864H54.0514C57.4754 31.0864 59.5543 33.0446 59.5543 35.8595C59.5543 38.6744 57.4754 40.755 54.0514 40.755H50.3827V31.0864H50.2604ZM54.0514 38.3073C54.3921 38.3398 54.736 38.3008 55.0608 38.1926C55.3856 38.0844 55.6842 37.9094 55.9375 37.679C56.1908 37.4485 56.3932 37.1676 56.5317 36.8543C56.6701 36.541 56.7417 36.2021 56.7417 35.8595C56.7417 35.5169 56.6701 35.1781 56.5317 34.8648C56.3932 34.5515 56.1908 34.2706 55.9375 34.0401C55.6842 33.8096 55.3856 33.6347 55.0608 33.5265C54.736 33.4183 54.3921 33.3792 54.0514 33.4118H52.9508V38.3073H54.0514ZM63.3452 31.0864H71.0494V33.4118H66.0356V35.0028H70.5602V37.2058H66.0356V40.755H63.3452V31.0864ZM74.8403 31.0864H77.5306V38.4297H82.1776V40.755H74.8403V31.0864ZM89.148 30.964H91.8383L95.9961 40.755H93.0612L92.3275 39.0416H88.5366L87.8028 40.755H84.9902L89.148 30.964ZM91.5938 36.961L90.4932 34.2685L89.3926 36.961H91.5938ZM99.4202 31.0864H103.945C104.522 31.0395 105.103 31.1132 105.65 31.3028C106.198 31.4925 106.7 31.7938 107.124 32.1879C107.475 32.566 107.729 33.0229 107.866 33.5201C108.002 34.0173 108.017 34.5402 107.909 35.0444C107.801 35.5486 107.574 36.0194 107.245 36.4169C106.917 36.8144 106.498 37.127 106.024 37.3282L108.347 40.755H105.29L103.333 37.8177H102.111V40.755H99.4202V31.0864ZM103.823 35.7371C104.679 35.7371 105.29 35.2476 105.29 34.6356C105.29 33.9013 104.679 33.5342 103.823 33.5342H102.111V35.8595H103.823V35.7371ZM111.771 31.0864H119.598V33.2894H114.462V34.758H119.109V36.961H114.462V38.4297H119.72V40.755H111.771V31.0864ZM7.45964 37.0834C7.27521 37.5159 6.96874 37.8852 6.57778 38.1461C6.18681 38.4069 5.72832 38.548 5.25846 38.5521C4.59905 38.5198 3.97728 38.235 3.52197 37.7565C3.06666 37.2781 2.8127 36.6427 2.8127 35.9819C2.8127 35.3212 3.06666 34.6858 3.52197 34.2073C3.97728 33.7288 4.59905 33.444 5.25846 33.4118C5.75856 33.4214 6.24495 33.5771 6.65777 33.8598C7.07058 34.1425 7.39181 34.5398 7.58193 35.0028H10.3946C10.154 33.8304 9.50594 32.7814 8.56561 32.042C7.62529 31.3025 6.45353 30.9206 5.25846 30.964C4.58248 30.942 3.90889 31.055 3.277 31.2963C2.64511 31.5376 2.06756 31.9025 1.57807 32.3696C1.08858 32.8367 0.696946 33.3967 0.426017 34.0169C0.155088 34.6371 0.0102925 35.3051 7.87605e-05 35.9819C-0.00368543 36.6523 0.127513 37.3166 0.385846 37.9352C0.64418 38.5537 1.02436 39.1138 1.50369 39.5822C1.98303 40.0505 2.55171 40.4173 3.1758 40.6609C3.79989 40.9045 4.46661 41.0197 5.13617 40.9998C6.30458 41.0077 7.44261 40.6275 8.37203 39.9188C9.30144 39.2101 9.96974 38.2129 10.2723 37.0834H7.45964Z" fill="#404041"/>
</g>
<defs>
<clipPath id="clip0_2124_278">
<rect width="124" height="41" fill="white"/>
</clipPath>
</defs>
</svg>
