<svg width="405" height="142" viewBox="0 0 405 142" fill="none" xmlns="http://www.w3.org/2000/svg">
<path d="M47.0821 28.2373L0 109.786H94.1642L47.0821 28.2373Z" fill="#002F59"/>
<path opacity="0.54" d="M69.3109 41.1228L22.2289 122.671L116.393 122.671L69.3109 41.1228Z" fill="#FFDE17"/>
<path d="M182.595 34.415C200.589 34.415 208.283 45.5425 208.283 58.3271C208.283 68.271 203.548 78.9248 191.355 82.3579L209.941 114.32H194.433L176.203 83.4233H155.368C154.066 83.4233 153.356 84.0151 153.356 85.4355V114.32H139.387V82.7129C139.387 73.7163 143.175 70.0464 151.936 70.0464H183.069C191 70.0464 194.196 64.6011 194.196 58.919C194.196 53.2368 190.764 48.3833 183.069 48.3833H139.269V34.4151L182.595 34.415Z" fill="#002F59"/>
<path d="M237.993 34.415V114.32H224.024V34.415H237.993Z" fill="#002F59"/>
<path d="M318.96 34.4151V48.3833H278.001C270.781 48.3833 267.584 52.2901 267.584 57.8535C267.584 62.707 270.071 67.3237 279.422 67.3237H298.125C319.908 67.3237 324.998 79.3985 324.998 90.8809C324.998 104.376 317.777 114.32 299.546 114.32H255.037V100.351H300.02C307.596 100.351 311.029 96.208 311.029 90.4077C311.029 85.1987 308.306 80.4639 298.481 80.4639H279.896C258.587 80.4639 253.616 68.5078 253.616 57.3804C253.616 44.1221 260.718 34.415 278.475 34.415L318.96 34.4151Z" fill="#002F59"/>
<path d="M404.306 34.415V48.3833H364.294C355.889 48.3833 352.22 52.29 352.22 58.4453C352.22 64.9565 356.363 67.916 364.413 67.916H403.714V80.582H364.057C356.008 80.582 351.865 83.7783 351.865 90.2891C351.865 96.563 355.771 100.351 363.939 100.351H404.424V114.32H363.939C344.999 114.32 337.304 104.968 337.304 92.5381C337.304 83.4233 341.448 77.2676 348.787 74.1899C341.329 71.1118 337.54 64.9565 337.54 56.1963C337.54 43.4116 345.472 34.415 364.294 34.415H404.306Z" fill="#002F59"/>
<path d="M147.336 125.165C150.073 125.165 151.244 126.858 151.244 128.802C151.244 130.315 150.523 131.935 148.669 132.458L151.495 137.319H149.137L146.364 132.62H143.195C142.997 132.62 142.889 132.709 142.889 132.925V137.319H140.765V132.511C140.765 131.143 141.341 130.584 142.673 130.584H147.409C148.615 130.584 149.101 129.756 149.101 128.892C149.101 128.028 148.579 127.29 147.409 127.29H140.746V125.165L147.336 125.165Z" fill="#002F59"/>
<path d="M155.759 125.165V137.319H153.634V125.165H155.759Z" fill="#002F59"/>
<path d="M168.073 125.165V127.29H161.843C160.745 127.29 160.258 127.883 160.258 128.73C160.258 129.468 160.636 130.17 162.058 130.17H164.904C168.217 130.17 168.991 132.007 168.991 133.753C168.991 135.806 167.892 137.319 165.12 137.319H158.349V135.194H165.192C166.344 135.194 166.866 134.564 166.866 133.681C166.866 132.889 166.452 132.169 164.957 132.169H162.131C158.89 132.169 158.134 130.35 158.134 128.658C158.134 126.641 159.214 125.165 161.914 125.165H168.073Z" fill="#002F59"/>
<path d="M181.015 125.165V127.29H176.315C173.974 127.29 172.948 128.459 172.948 131.25C172.948 134.024 173.956 135.194 176.315 135.194H181.015V137.319H176.315C172.768 137.319 170.824 135.32 170.824 131.25C170.824 127.164 172.786 125.165 176.315 125.165H181.015Z" fill="#002F59"/>
<path d="M188.321 130.693V132.529H181.893V130.693H188.321Z" fill="#002F59"/>
<path d="M190.641 125.165L194.333 134.942C194.441 135.23 194.639 135.356 194.927 135.356C195.215 135.356 195.395 135.23 195.521 134.942L199.392 125.165H201.751L197.466 135.968C197.015 137.102 196.187 137.535 194.927 137.535C193.739 137.535 192.82 137.157 192.37 135.968L188.301 125.165H190.641Z" fill="#002F59"/>
<path d="M217.735 125.165V127.29H211.504C210.406 127.29 209.92 127.883 209.92 128.73C209.92 129.468 210.298 130.17 211.72 130.17H214.566C217.878 130.17 218.653 132.007 218.653 133.753C218.653 135.806 217.554 137.319 214.782 137.319H208.011V135.194H214.854C216.006 135.194 216.528 134.564 216.528 133.681C216.528 132.889 216.114 132.169 214.62 132.169H211.792C208.551 132.169 207.795 130.35 207.795 128.658C207.795 126.641 208.875 125.165 211.577 125.165H217.735Z" fill="#002F59"/>
<path d="M226.571 127.812C229.092 127.812 230.694 129.36 230.694 132.565C230.694 135.77 229.092 137.319 226.571 137.319H224.573C222.034 137.319 220.45 135.77 220.45 132.565C220.45 129.36 222.034 127.812 224.573 127.812H226.571ZM224.752 129.648C223.096 129.648 222.375 130.512 222.375 132.565C222.375 134.618 223.096 135.464 224.752 135.464H226.391C228.03 135.464 228.768 134.618 228.768 132.565C228.768 130.512 228.03 129.648 226.391 129.648H224.752Z" fill="#002F59"/>
<path d="M233.319 127.812V126.965C233.319 124.481 234.165 123.689 236.128 123.689H237.838V125.435H236.524C235.623 125.435 235.245 125.795 235.245 126.858V127.812H237.874V129.648H235.245V137.319H233.319V129.648H232.023V127.812L233.319 127.812Z" fill="#002F59"/>
<path d="M240.429 127.812V125.561H242.356V127.812H244.984V129.648H242.356V134.15C242.356 135.212 242.734 135.572 243.634 135.572H244.949V137.319H243.238C241.275 137.319 240.429 136.526 240.429 134.042V129.648H239.132V127.812L240.429 127.812Z" fill="#002F59"/>
<path d="M248.439 127.812L249.286 135.23C249.339 135.644 249.519 135.842 249.969 135.842C250.402 135.842 250.581 135.662 250.671 135.32L252.022 129.558C252.31 128.298 253.12 127.631 254.633 127.631C256.145 127.631 256.883 128.298 257.171 129.558L258.45 135.32C258.522 135.662 258.738 135.842 259.17 135.842C259.602 135.842 259.764 135.644 259.819 135.23L260.809 127.812H262.879L261.817 135.338C261.637 136.653 260.88 137.535 259.152 137.535C257.676 137.535 256.883 136.886 256.595 135.572L255.317 129.792C255.245 129.468 254.975 129.324 254.615 129.324C254.237 129.324 253.985 129.468 253.912 129.792L252.562 135.572C252.256 136.886 251.446 137.535 249.933 137.535C248.169 137.535 247.538 136.653 247.359 135.338L246.369 127.812H248.439Z" fill="#002F59"/>
<path d="M270.869 127.812C273.245 127.812 274.181 129.144 274.181 130.945V135.41C274.181 136.779 273.822 137.319 272.219 137.319H267.772C265.521 137.319 264.584 136.22 264.584 134.419C264.584 132.691 265.449 131.683 267.789 131.683H272.309V130.962C272.309 130.224 271.895 129.648 270.85 129.648H265.161V127.812H270.869ZM272.309 134.978V133.196H267.826C266.817 133.196 266.457 133.61 266.457 134.312C266.457 135.014 266.835 135.464 267.789 135.464H271.786C272.164 135.464 272.309 135.32 272.309 134.978Z" fill="#002F59"/>
<path d="M283.342 127.812V129.648H279.994C279.147 129.648 278.769 130.044 278.769 130.873V137.319H276.861V130.584C276.861 128.676 277.563 127.812 279.435 127.812H283.342Z" fill="#002F59"/>
<path d="M291.406 127.812C293.657 127.812 294.611 128.892 294.611 130.729C294.611 132.475 293.729 133.465 291.388 133.465H286.869V134.15C286.869 134.906 287.283 135.464 288.328 135.464H294.143V137.319H288.328C285.951 137.319 285.014 135.986 285.014 134.186V130.945C285.014 129.144 285.951 127.812 288.328 127.812H291.406ZM286.869 131.971H291.334C292.361 131.971 292.739 131.539 292.739 130.836C292.739 130.117 292.325 129.648 291.388 129.648H288.328C287.283 129.648 286.869 130.224 286.869 130.962V131.971Z" fill="#002F59"/>
<path d="M311.567 125.165V127.29H305.482C304.203 127.29 303.645 127.883 303.645 128.82C303.645 129.81 304.275 130.26 305.499 130.26H311.477V132.187H305.446C304.221 132.187 303.591 132.673 303.591 133.664C303.591 134.618 304.185 135.194 305.427 135.194H311.585V137.319H305.427C302.546 137.319 301.376 135.896 301.376 134.005C301.376 132.62 302.006 131.683 303.122 131.214C301.989 130.747 301.412 129.81 301.412 128.478C301.412 126.534 302.619 125.165 305.482 125.165L311.567 125.165Z" fill="#002F59"/>
<path d="M322.798 127.812V129.648H318.081C316.424 129.648 315.704 130.512 315.704 132.565C315.704 134.618 316.424 135.464 318.081 135.464H322.798V137.319H317.901C315.363 137.319 313.778 135.77 313.778 132.565C313.778 129.36 315.363 127.812 317.901 127.812L322.798 127.812Z" fill="#002F59"/>
<path d="M330.736 127.812C333.256 127.812 334.859 129.36 334.859 132.565C334.859 135.77 333.256 137.319 330.736 137.319H328.737C326.198 137.319 324.614 135.77 324.614 132.565C324.614 129.36 326.198 127.812 328.737 127.812H330.736ZM328.916 129.648C327.26 129.648 326.54 130.512 326.54 132.565C326.54 134.618 327.26 135.464 328.916 135.464H330.555C332.194 135.464 332.932 134.618 332.932 132.565C332.932 130.512 332.194 129.648 330.555 129.648H328.916Z" fill="#002F59"/>
<path d="M345.064 127.812V129.648H339.806C338.924 129.648 338.564 130.008 338.564 130.729C338.564 131.395 338.852 131.755 339.914 131.755H342.147C344.776 131.755 345.442 132.961 345.442 134.438C345.442 136.13 344.56 137.319 342.327 137.319H336.799V135.464H342.327C343.209 135.464 343.569 135.158 343.569 134.419C343.569 133.664 343.173 133.357 342.219 133.357H339.968C337.339 133.357 336.691 132.043 336.691 130.584C336.691 128.875 337.574 127.812 339.788 127.812L345.064 127.812Z" fill="#002F59"/>
<path d="M357.629 127.812L351.904 141.135H349.851L351.633 136.976C350.553 136.976 350.175 136.634 349.851 135.806L346.663 127.812H348.68L351.543 134.888C351.669 135.23 351.759 135.284 352.119 135.284H352.371L355.594 127.812H357.629Z" fill="#002F59"/>
<path d="M366.952 127.812V129.648H361.694C360.812 129.648 360.452 130.008 360.452 130.729C360.452 131.395 360.74 131.755 361.802 131.755H364.035C366.663 131.755 367.329 132.961 367.329 134.438C367.329 136.13 366.447 137.319 364.214 137.319H358.687V135.464H364.214C365.097 135.464 365.456 135.158 365.456 134.419C365.456 133.664 365.061 133.357 364.107 133.357H361.856C359.227 133.357 358.578 132.043 358.578 130.584C358.578 128.875 359.461 127.812 361.676 127.812L366.952 127.812Z" fill="#002F59"/>
<path d="M369.919 127.812V125.561H371.845V127.812H374.474V129.648H371.845V134.15C371.845 135.212 372.224 135.572 373.123 135.572H374.438V137.319H372.728C370.765 137.319 369.919 136.526 369.919 134.042V129.648H368.622V127.812L369.919 127.812Z" fill="#002F59"/>
<path d="M382.521 127.812C384.771 127.812 385.726 128.892 385.726 130.729C385.726 132.475 384.843 133.465 382.502 133.465H377.984V134.15C377.984 134.906 378.398 135.464 379.442 135.464H385.257V137.319H379.442C377.065 137.319 376.128 135.986 376.128 134.186V130.945C376.128 129.144 377.065 127.812 379.442 127.812H382.521ZM377.984 131.971H382.449C383.475 131.971 383.853 131.539 383.853 130.836C383.853 130.117 383.439 129.648 382.502 129.648H379.442C378.398 129.648 377.984 130.224 377.984 130.962L377.984 131.971Z" fill="#002F59"/>
<path d="M399.172 127.812C402.396 127.812 403.98 129.342 403.98 131.971V137.319H402.053V131.971C402.053 130.476 401.189 129.648 399.191 129.648H396.957V137.319H395.032V129.648H390.205C390.043 129.648 389.972 129.739 389.972 129.918V137.319H388.063V129.289C388.063 128.171 388.441 127.812 389.396 127.812L399.172 127.812Z" fill="#002F59"/>
</svg>
