<?xml version="1.0" encoding="UTF-8" standalone="no"?>
<!-- Generator: Adobe Illustrator 26.2.1, SVG Export Plug-In . SVG Version: 6.00 Build 0)  -->

<svg
   version="1.1"
   id="Ebene_1"
   x="0px"
   y="0px"
   viewBox="0 0 360.4 69.346915"
   xml:space="preserve"
   sodipodi:docname="Logo_Adoptium_2021_03_08_JRR_CMYK-V2A.svg"
   width="360.39999"
   height="69.346916"
   inkscape:version="1.2.1 (9c6d41e4, 2022-07-14)"
   xmlns:inkscape="http://www.inkscape.org/namespaces/inkscape"
   xmlns:sodipodi="http://sodipodi.sourceforge.net/DTD/sodipodi-0.dtd"
   xmlns="http://www.w3.org/2000/svg"
   xmlns:svg="http://www.w3.org/2000/svg"><defs
   id="defs577" /><sodipodi:namedview
   id="namedview575"
   pagecolor="#ffffff"
   bordercolor="#000000"
   borderopacity="0.25"
   inkscape:showpageshadow="2"
   inkscape:pageopacity="0.0"
   inkscape:pagecheckerboard="0"
   inkscape:deskcolor="#d1d1d1"
   showgrid="false"
   inkscape:zoom="5.0752688"
   inkscape:cx="169.05508"
   inkscape:cy="30.934322"
   inkscape:window-width="2560"
   inkscape:window-height="1414"
   inkscape:window-x="0"
   inkscape:window-y="26"
   inkscape:window-maximized="0"
   inkscape:current-layer="Ebene_1" />
<style
   type="text/css"
   id="style507">
	.st0{fill:#E72867;}
	.st1{fill:url(#SVGID_1_);}
	.st2{fill:url(#SVGID_00000065053929645682165250000009824252943880321706_);}
	.st3{fill:url(#SVGID_00000028306637974569967630000010874778445712791955_);}
</style>
<g
   id="g541"
   transform="translate(-49.833474,-58.847458)">
	<g
   id="g511">
		<path
   class="st0"
   d="m 170.7,100.1 c 0,0.7 -0.3,1.3 -0.9,1.8 -0.6,0.5 -1.2,0.8 -2,0.8 -0.5,0 -1,-0.1 -1.4,-0.4 -0.4,-0.3 -0.7,-0.7 -1,-1.2 l -1.5,-3.3 h -10.7 l -1.5,3.3 c -0.2,0.5 -0.6,0.9 -1,1.2 -0.4,0.3 -0.9,0.4 -1.4,0.4 -0.7,0 -1.4,-0.3 -2,-0.8 -0.6,-0.5 -0.9,-1.1 -0.9,-1.8 0,-0.4 0.1,-0.8 0.3,-1.2 L 155.4,81 c 0.3,-0.6 0.7,-1 1.3,-1.4 0.6,-0.3 1.2,-0.5 1.9,-0.5 0.7,0 1.3,0.2 1.8,0.5 0.6,0.3 1,0.8 1.3,1.4 l 8.7,17.9 c 0.2,0.4 0.3,0.8 0.3,1.2 z M 155.4,93.3 H 162 L 158.7,86 Z"
   id="path509" />
	</g>
	<g
   id="g515">
		<path
   class="st0"
   d="m 183.9,101.9 c -0.5,-0.5 -0.7,-1.2 -0.7,-2.1 V 82.2 c 0,-0.9 0.2,-1.6 0.7,-2.1 0.5,-0.5 1.2,-0.7 2.1,-0.7 h 6.7 c 2.6,0 4.8,0.5 6.6,1.4 1.9,0.9 3.3,2.3 4.3,4 1,1.7 1.5,3.8 1.5,6.2 0,2.4 -0.5,4.5 -1.5,6.2 -1,1.7 -2.4,3.1 -4.2,4 -1.9,0.9 -4.1,1.4 -6.7,1.4 H 186 c -1,0 -1.6,-0.2 -2.1,-0.7 z m 13.4,-5.8 c 1.1,-1.1 1.7,-2.8 1.7,-5.1 0,-2.3 -0.6,-4 -1.7,-5.1 -1.1,-1.1 -2.8,-1.6 -5.1,-1.6 h -3 v 13.5 h 3 c 2.2,-0.1 3.9,-0.6 5.1,-1.7 z"
   id="path513" />
	</g>
	<g
   id="g519">
		<path
   class="st0"
   d="m 222.4,101.5 c -1.7,-1 -3.1,-2.4 -4,-4.2 -0.9,-1.8 -1.4,-3.9 -1.4,-6.3 0,-2.4 0.5,-4.5 1.4,-6.3 0.9,-1.8 2.3,-3.2 4,-4.1 1.7,-1 3.8,-1.4 6.2,-1.4 2.4,0 4.4,0.5 6.2,1.4 1.7,1 3.1,2.3 4,4.1 0.9,1.8 1.4,3.9 1.4,6.3 0,2.4 -0.5,4.5 -1.4,6.3 -0.9,1.8 -2.3,3.2 -4,4.2 -1.7,1 -3.8,1.5 -6.1,1.5 -2.5,-0.1 -4.5,-0.6 -6.3,-1.5 z m 10.3,-5.1 c 1,-1.2 1.5,-3 1.5,-5.4 0,-2.4 -0.5,-4.2 -1.5,-5.4 -1,-1.2 -2.4,-1.8 -4.1,-1.8 -1.8,0 -3.1,0.6 -4.1,1.8 -1,1.2 -1.5,3 -1.5,5.4 0,2.4 0.5,4.2 1.5,5.4 1,1.2 2.4,1.8 4.1,1.8 1.8,0.1 3.1,-0.5 4.1,-1.8 z"
   id="path517" />
	</g>
	<g
   id="g523">
		<path
   class="st0"
   d="m 254.5,102 c -0.5,-0.5 -0.8,-1.3 -0.8,-2.2 V 82.2 c 0,-0.9 0.2,-1.6 0.7,-2.1 0.5,-0.5 1.2,-0.7 2.1,-0.7 h 8.4 c 2.6,0 4.6,0.7 6,2 1.4,1.3 2.1,3.1 2.1,5.5 0,2.3 -0.7,4.1 -2.2,5.4 -1.4,1.3 -3.4,2 -6,2 h -5.2 v 5.6 c 0,0.9 -0.3,1.7 -0.8,2.2 -0.5,0.5 -1.3,0.8 -2.2,0.8 -0.8,-0.1 -1.6,-0.3 -2.1,-0.9 z m 12.1,-13 c 0.5,-0.5 0.8,-1.2 0.8,-2.1 0,-1.9 -1.1,-2.9 -3.3,-2.9 h -4.3 v 5.7 h 4.3 c 1.1,0 2,-0.3 2.5,-0.7 z"
   id="path521" />
	</g>
	<g
   id="g527">
		<path
   class="st0"
   d="m 292.5,102 c -0.6,-0.5 -0.8,-1.3 -0.8,-2.2 V 84.3 h -4.6 c -1,0 -1.7,-0.2 -2.2,-0.6 -0.5,-0.4 -0.7,-1 -0.7,-1.9 0,-0.8 0.2,-1.4 0.7,-1.8 0.5,-0.4 1.2,-0.6 2.2,-0.6 h 15.4 c 1,0 1.7,0.2 2.2,0.6 0.5,0.4 0.7,1 0.7,1.8 0,0.8 -0.2,1.5 -0.7,1.9 -0.5,0.4 -1.2,0.6 -2.2,0.6 h -4.6 v 15.5 c 0,0.9 -0.3,1.6 -0.8,2.2 -0.6,0.5 -1.3,0.8 -2.2,0.8 -1.1,0 -1.8,-0.3 -2.4,-0.8 z"
   id="path525" />
	</g>
	<g
   id="g531">
		<path
   class="st0"
   d="m 318.9,102 c -0.5,-0.5 -0.8,-1.3 -0.8,-2.2 V 82.2 c 0,-0.9 0.3,-1.6 0.8,-2.2 0.5,-0.5 1.3,-0.8 2.2,-0.8 0.9,0 1.7,0.3 2.2,0.8 0.5,0.5 0.8,1.3 0.8,2.2 v 17.6 c 0,0.9 -0.3,1.7 -0.8,2.2 -0.5,0.5 -1.3,0.8 -2.2,0.8 -0.9,0 -1.6,-0.2 -2.2,-0.8 z"
   id="path529" />
	</g>
	<g
   id="g535">
		<path
   class="st0"
   d="m 341.1,100.4 c -1.7,-1.7 -2.6,-4.2 -2.6,-7.5 V 82.2 c 0,-0.9 0.3,-1.6 0.8,-2.2 0.5,-0.5 1.3,-0.8 2.2,-0.8 0.9,0 1.6,0.3 2.2,0.8 0.5,0.5 0.8,1.3 0.8,2.2 v 10.9 c 0,1.7 0.4,3 1.1,3.9 0.7,0.9 1.8,1.4 3.2,1.4 1.4,0 2.5,-0.5 3.2,-1.4 0.7,-0.9 1.1,-2.2 1.1,-3.9 V 82.2 c 0,-0.9 0.3,-1.6 0.8,-2.2 0.5,-0.5 1.3,-0.8 2.2,-0.8 0.9,0 1.6,0.3 2.2,0.8 0.5,0.5 0.8,1.3 0.8,2.2 v 10.6 c 0,3.3 -0.9,5.8 -2.7,7.5 -1.8,1.7 -4.3,2.6 -7.7,2.6 -3.3,0 -5.9,-0.8 -7.6,-2.5 z"
   id="path533" />
	</g>
	<g
   id="g539">
		<path
   class="st0"
   d="m 395.9,80.1 c 0.5,0.5 0.8,1.3 0.8,2.1 v 17.9 c 0,0.8 -0.2,1.5 -0.7,2 -0.5,0.5 -1.1,0.7 -1.9,0.7 -0.8,0 -1.4,-0.2 -1.9,-0.7 -0.5,-0.5 -0.7,-1.1 -0.7,-2 v -9.7 l -3.8,6.9 c -0.4,0.7 -0.8,1.2 -1.2,1.5 -0.4,0.3 -0.9,0.4 -1.5,0.4 -0.6,0 -1.1,-0.1 -1.5,-0.4 -0.4,-0.3 -0.8,-0.8 -1.2,-1.5 l -3.7,-6.7 v 9.5 c 0,0.8 -0.2,1.5 -0.7,2 -0.5,0.5 -1.1,0.7 -1.9,0.7 -0.8,0 -1.4,-0.2 -1.9,-0.7 -0.5,-0.5 -0.7,-1.1 -0.7,-2 V 82.2 c 0,-0.9 0.3,-1.6 0.8,-2.1 0.5,-0.5 1.2,-0.8 2.1,-0.8 0.6,0 1.1,0.2 1.6,0.5 0.5,0.3 0.9,0.8 1.2,1.5 l 6.1,11.4 6,-11.4 c 0.7,-1.3 1.6,-2 2.8,-2 0.7,-0.1 1.4,0.2 1.9,0.8 z"
   id="path537" />
	</g>
</g>
<g
   id="g568"
   transform="translate(-49.833474,-58.847458)">
	<g
   id="g550">
		
			<linearGradient
   id="SVGID_1_"
   gradientUnits="userSpaceOnUse"
   x1="115.2105"
   y1="67.834099"
   x2="67.023697"
   y2="93.215599"
   gradientTransform="matrix(1,0,0,-1,0,188)">
			<stop
   offset="0"
   style="stop-color:#4E1948"
   id="stop543" />
			<stop
   offset="1"
   style="stop-color:#1C1537"
   id="stop545" />
		</linearGradient>
		<path
   class="st1"
   d="m 98.8,118.2 v 0 L 88,94.9 l -8.1,17.6 23.6,10.6 v 0 c -2.1,-1 -3.8,-2.8 -4.7,-4.9 z"
   id="path548"
   style="fill:url(#SVGID_1_)" />
	</g>
	<g
   id="g559">
		
			<linearGradient
   id="SVGID_00000145743962791996125070000013581446879847130757_"
   gradientUnits="userSpaceOnUse"
   x1="84.619499"
   y1="125.0237"
   x2="111.146"
   y2="65.482101"
   gradientTransform="matrix(1,0,0,-1,0,188)">
			<stop
   offset="0"
   style="stop-color:#A81255"
   id="stop552" />
			<stop
   offset="1"
   style="stop-color:#4E1948"
   id="stop554" />
		</linearGradient>
		<path
   style="fill:url(#SVGID_00000145743962791996125070000013581446879847130757_)"
   d="m 116.5,110.2 v 0 L 97,68 c -0.1,-0.1 -0.1,-0.3 -0.2,-0.4 l -0.1,-0.3 v 0 c 0,-0.1 -0.1,-0.1 -0.1,-0.2 0.7,1.4 1.2,2.9 1.2,4.6 0,1.4 -0.3,2.8 -0.9,4 v 0 L 88,94.9 98.7,118.2 v 0 c 1.5,3.4 4.9,5.8 8.9,5.8 5.4,0 9.7,-4.3 9.7,-9.7 0.1,-1.5 -0.3,-2.8 -0.8,-4.1 z"
   id="path557" />
	</g>
	
		<linearGradient
   id="SVGID_00000124859595985751541310000017323660527589185197_"
   gradientUnits="userSpaceOnUse"
   x1="64.958397"
   y1="64.507301"
   x2="90.912399"
   y2="124.0489"
   gradientTransform="matrix(1,0,0,-1,0,188)">
		<stop
   offset="0"
   style="stop-color:#E72867"
   id="stop561" />
		<stop
   offset="1"
   style="stop-color:#A81255"
   id="stop563" />
	</linearGradient>
	<path
   style="fill:url(#SVGID_00000124859595985751541310000017323660527589185197_)"
   d="m 88,62 c -3.8,0 -7,2.2 -8.6,5.3 v 0 l -0.1,0.3 c -0.1,0.1 -0.1,0.3 -0.2,0.4 l -19.5,42.2 v 0 c -0.6,1.2 -0.9,2.6 -0.9,4.1 0,5.4 4.3,9.7 9.7,9.7 4,0 7.4,-2.4 8.9,-5.8 v 0 L 96.9,75.8 v 0 c 0.6,-1.2 0.9,-2.6 0.9,-4 C 97.7,66.4 93.4,62 88,62 Z"
   id="path566" />
</g>
<g
   id="g572"
   transform="translate(-49.833474,-58.847458)">
	<path
   class="st0"
   d="m 400.2,77.8 c -0.4,-0.2 -0.8,-0.4 -1.1,-0.7 -0.3,-0.3 -0.6,-0.7 -0.7,-1.1 -0.2,-0.4 -0.3,-0.8 -0.3,-1.3 0,-0.6 0.2,-1.2 0.5,-1.7 0.3,-0.5 0.7,-0.9 1.3,-1.2 0.6,-0.3 1.1,-0.4 1.7,-0.4 0.6,0 1.2,0.1 1.7,0.4 0.5,0.3 1,0.7 1.3,1.2 0.3,0.5 0.5,1.1 0.5,1.7 0,0.4 -0.1,0.9 -0.3,1.3 -0.2,0.4 -0.4,0.8 -0.7,1.1 -0.3,0.3 -0.7,0.5 -1.1,0.7 -0.4,0.2 -0.9,0.3 -1.3,0.3 -0.4,0 -1.1,-0.1 -1.5,-0.3 z m 2.8,-0.6 c 0.4,-0.2 0.8,-0.6 1,-1 0.2,-0.4 0.4,-0.9 0.4,-1.4 0,-0.5 -0.1,-1 -0.4,-1.4 -0.2,-0.4 -0.6,-0.7 -1,-1 -0.4,-0.3 -0.9,-0.4 -1.4,-0.4 -0.5,0 -1,0.1 -1.4,0.4 -0.4,0.2 -0.8,0.6 -1,1 -0.2,0.4 -0.4,0.9 -0.4,1.4 0,0.5 0.1,1 0.4,1.4 0.2,0.4 0.6,0.7 1,1 0.4,0.2 0.9,0.4 1.4,0.4 0.5,-0.1 1,-0.2 1.4,-0.4 z m -2.6,-0.6 c -0.1,0 -0.1,-0.1 -0.1,-0.2 v -3 c 0,-0.1 0,-0.2 0.1,-0.3 0.1,-0.1 0.2,-0.1 0.3,-0.1 h 1.2 c 0.5,0 0.9,0.1 1.1,0.2 0.2,0.1 0.3,0.4 0.3,0.8 0,0.2 0,0.3 -0.1,0.4 -0.1,0.1 -0.1,0.2 -0.2,0.3 -0.1,0.1 -0.2,0.1 -0.3,0.2 -0.1,0 -0.3,0.1 -0.4,0.1 l 0.9,1.2 c 0,0 0,0.1 0,0.1 0,0.1 0,0.1 -0.1,0.2 -0.1,0.1 -0.1,0.1 -0.2,0.1 -0.1,0 -0.2,0 -0.2,-0.1 l -1,-1.5 H 401 v 1.4 c 0,0.1 0,0.2 -0.1,0.2 -0.1,0 -0.1,0.1 -0.2,0.1 -0.1,0 -0.3,-0.1 -0.3,-0.1 z m 0.8,-2.1 c 0.1,0 0.1,0 0.2,0 0.1,0 0.1,0 0.2,0 0.1,0 0.1,0 0.2,0 0.1,0 0.1,0 0.1,0 0.1,0 0.2,0 0.3,0 0.1,0 0.1,0 0.2,0 0.1,0 0.1,-0.1 0.2,-0.1 0.1,0 0.1,-0.1 0.1,-0.2 0,-0.1 0,-0.2 0,-0.3 0,-0.2 -0.1,-0.3 -0.2,-0.4 -0.1,-0.1 -0.3,-0.1 -0.6,-0.1 H 401 v 1 c -0.1,0.1 0,0.1 0.2,0.1 z"
   id="path570" />
</g>
</svg>
