<?xml version="1.0" encoding="UTF-8" standalone="no"?>
<svg
   xmlns:dc="http://purl.org/dc/elements/1.1/"
   xmlns:cc="http://creativecommons.org/ns#"
   xmlns:rdf="http://www.w3.org/1999/02/22-rdf-syntax-ns#"
   xmlns:svg="http://www.w3.org/2000/svg"
   xmlns="http://www.w3.org/2000/svg"
   xmlns:sodipodi="http://sodipodi.sourceforge.net/DTD/sodipodi-0.dtd"
   xmlns:inkscape="http://www.inkscape.org/namespaces/inkscape"
   sodipodi:docname="Eclipse Adoptium Logo.svg"
   inkscape:version="1.0 (4035a4f, 2020-05-01)"
   id="svg8"
   version="1.1"
   viewBox="0 0 297 100"
   height="80mm">
  <defs
     id="defs2">
    <clipPath
       clipPathUnits="userSpaceOnUse"
       id="clipPath242">
      <path
         d="m 987.855,678.469 -0.019,-0.008 -107.453,233.098 -81.121,-175.989 235.718,-106.09 0.01,0.02 c -21.01,10.078 -37.838,27.52 -47.135,48.969 z"
         id="path240" />
    </clipPath>
    <linearGradient
       x1="0"
       y1="0"
       x2="1"
       y2="0"
       gradientUnits="userSpaceOnUse"
       gradientTransform="matrix(-481.882,253.823,253.823,481.882,1152.35,658.95)"
       spreadMethod="pad"
       id="linearGradient248">
      <stop
         style="stop-opacity:1;stop-color:#421644"
         offset="0"
         id="stop244" />
      <stop
         style="stop-opacity:1;stop-color:#151530"
         offset="1"
         id="stop246" />
    </linearGradient>
    <clipPath
       clipPathUnits="userSpaceOnUse"
       id="clipPath258">
      <path
         d="m 1164.62,758.102 0.08,0.039 -194.618,422.029 c -0.547,1.32 -1.184,2.59 -1.789,3.88 l -1.453,3.16 -0.059,-0.03 c -0.324,0.65 -0.703,1.27 -1.054,1.9 7.382,-13.68 11.589,-29.34 11.589,-45.98 0,-14.34 -3.191,-27.91 -8.777,-40.15 l 0.059,-0.03 -88.215,-191.361 107.453,-233.098 0.019,0.008 c 14.915,-34.387 49.125,-58.457 89.005,-58.457 53.57,0 96.99,43.429 96.99,97 0,14.707 -3.37,28.597 -9.23,41.09 z"
         id="path256" />
    </clipPath>
    <linearGradient
       x1="0"
       y1="0"
       x2="1"
       y2="0"
       gradientUnits="userSpaceOnUse"
       gradientTransform="matrix(265.274,-595.434,-595.434,-265.274,846.292,1230.46)"
       spreadMethod="pad"
       id="linearGradient264">
      <stop
         style="stop-opacity:1;stop-color:#a21058"
         offset="0"
         id="stop260" />
      <stop
         style="stop-opacity:1;stop-color:#421644"
         offset="1"
         id="stop262" />
    </linearGradient>
    <clipPath
       clipPathUnits="userSpaceOnUse"
       id="clipPath274">
      <path
         d="m 880.316,1240.11 c -37.687,0 -70.273,-21.54 -86.328,-52.93 l -0.058,0.03 -1.457,-3.16 c -0.606,-1.29 -1.239,-2.56 -1.785,-3.88 l -194.622,-422.029 0.079,-0.039 c -5.86,-12.493 -9.227,-26.383 -9.227,-41.09 0,-53.571 43.418,-97 96.992,-97 39.871,0 74.09,24.07 89.004,58.457 l 0.02,-0.008 195.664,424.459 -0.059,0.03 c 5.586,12.24 8.777,25.81 8.777,40.15 0,53.58 -43.425,97.01 -97,97.01 z"
         id="path272" />
    </clipPath>
    <linearGradient
       x1="0"
       y1="0"
       x2="1"
       y2="0"
       gradientUnits="userSpaceOnUse"
       gradientTransform="matrix(259.548,595.434,595.434,-259.548,649.304,625.36)"
       spreadMethod="pad"
       id="linearGradient280">
      <stop
         style="stop-opacity:1;stop-color:#ee1a6d"
         offset="0"
         id="stop276" />
      <stop
         style="stop-opacity:1;stop-color:#a21058"
         offset="1"
         id="stop278" />
    </linearGradient>
  </defs>
  <sodipodi:namedview
     height="100mm"
     inkscape:window-maximized="1"
     inkscape:window-y="25"
     inkscape:window-x="0"
     inkscape:window-height="1387"
     inkscape:window-width="2560"
     showgrid="false"
     inkscape:document-rotation="0"
     inkscape:current-layer="layer1"
     inkscape:document-units="mm"
     inkscape:cy="585.06277"
     inkscape:cx="148.94137"
     inkscape:zoom="0.53109512"
     inkscape:pageshadow="2"
     inkscape:pageopacity="0.0"
     borderopacity="1.0"
     bordercolor="#666666"
     pagecolor="#ffffff"
     id="base" />
  <metadata
     id="metadata5">
    <rdf:RDF>
      <cc:Work
         rdf:about="">
        <dc:format>image/svg+xml</dc:format>
        <dc:type
           rdf:resource="http://purl.org/dc/dcmitype/StillImage" />
        <dc:title></dc:title>
      </cc:Work>
    </rdf:RDF>
  </metadata>
  <g
     id="layer1"
     inkscape:groupmode="layer"
     inkscape:label="Layer 1">
    <g
       inkscape:export-ydpi="96"
       inkscape:export-xdpi="96"
       transform="matrix(0.0826697,0,0,-0.0826697,-36.864228,126.62103)"
       id="g216">
      <path
         id="path218"
         style="fill:#ee1a6d;fill-opacity:1;fill-rule:nonzero;stroke:none"
         d="m 1553.87,927.555 h 65.89 l -32.94,73.465 z m 153.53,-68.524 c 0,-7.25 -2.92,-13.41 -8.73,-18.461 -5.82,-5.039 -12.47,-7.558 -19.93,-7.558 -5.06,0 -9.68,1.297 -13.84,3.937 -4.17,2.641 -7.47,6.59 -9.89,11.871 l -14.82,33.27 h -106.74 l -15.16,-33.27 c -2.42,-5.281 -5.76,-9.23 -10.04,-11.871 -4.29,-2.64 -8.95,-3.937 -14,-3.937 -7.47,0 -14.23,2.519 -20.27,7.558 -6.04,5.051 -9.06,11.211 -9.06,18.461 0,3.953 0.99,8.016 2.97,12.188 l 86.98,178.561 c 2.85,5.93 7.08,10.48 12.68,13.67 5.6,3.19 11.8,4.78 18.6,4.78 6.6,0 12.75,-1.59 18.46,-4.78 5.7,-3.19 9.99,-7.74 12.84,-13.67 l 86.99,-178.561 c 1.97,-4.172 2.96,-8.235 2.96,-12.188" />
      <path
         id="path220"
         style="fill:#ee1a6d;fill-opacity:1;fill-rule:nonzero;stroke:none"
         d="m 1972.6,899.383 c 11.31,11.094 16.96,28.055 16.96,50.898 0,22.84 -5.65,39.754 -16.96,50.739 -11.32,10.98 -28.28,16.48 -50.9,16.48 h -29.65 V 882.754 h 29.65 c 22.62,0 39.58,5.535 50.9,16.629 z m -133.93,-58.145 c -4.83,4.821 -7.24,11.75 -7.24,20.762 v 176.25 c 0,9 2.41,15.92 7.24,20.75 4.84,4.82 11.75,7.26 20.77,7.26 h 66.54 c 25.7,0 47.82,-4.67 66.39,-14.01 18.55,-9.33 32.78,-22.68 42.66,-40.03 9.88,-17.349 14.83,-37.993 14.83,-61.939 0,-24.16 -4.9,-44.972 -14.66,-62.422 -9.79,-17.461 -23.95,-30.808 -42.5,-40.031 -18.57,-9.226 -40.8,-13.84 -66.72,-13.84 h -66.54 c -9.02,0 -15.93,2.41 -20.77,7.25" />
      <path
         id="path222"
         style="fill:#ee1a6d;fill-opacity:1;fill-rule:nonzero;stroke:none"
         d="m 2327.25,896.09 c 9.89,12.414 14.83,30.469 14.83,54.191 0,23.731 -5,41.739 -14.99,54.029 -10,12.3 -23.67,18.46 -41.01,18.46 -17.58,0 -31.31,-6.1 -41.18,-18.29 -9.9,-12.187 -14.84,-30.253 -14.84,-54.199 0,-23.937 4.94,-42.062 14.84,-54.355 9.87,-12.305 23.6,-18.449 41.18,-18.449 17.57,0 31.3,6.203 41.17,18.613 z M 2224.3,845.68 c -17.46,9.781 -30.92,23.617 -40.35,41.515 -9.46,17.899 -14.17,38.926 -14.17,63.086 0,24.16 4.71,45.184 14.17,63.099 9.43,17.89 22.89,31.67 40.35,41.34 17.46,9.66 38.06,14.49 61.78,14.49 23.71,0 44.3,-4.83 61.76,-14.49 17.47,-9.67 30.85,-23.45 40.19,-41.34 9.35,-17.915 14,-38.939 14,-63.099 0,-24.16 -4.71,-45.187 -14.16,-63.086 -9.45,-17.898 -22.9,-31.734 -40.35,-41.515 -17.46,-9.77 -37.95,-14.66 -61.44,-14.66 -23.72,0 -44.32,4.89 -61.78,14.66" />
      <path
         id="path224"
         style="fill:#ee1a6d;fill-opacity:1;fill-rule:nonzero;stroke:none"
         d="m 2665.89,970.387 c 5.39,4.609 8.08,11.742 8.08,21.41 0,19.113 -10.99,28.663 -32.95,28.663 h -43.49 v -56.995 h 43.49 c 11.21,0 19.49,2.305 24.87,6.922 z M 2544.98,840.09 c -5.38,5.379 -8.06,12.68 -8.06,21.91 v 176.25 c 0,9 2.41,15.92 7.24,20.75 4.84,4.82 11.75,7.26 20.76,7.26 h 84.34 c 25.7,0 45.67,-6.55 59.96,-19.61 14.27,-13.07 21.42,-31.24 21.42,-54.521 0,-23.07 -7.21,-41.184 -21.58,-54.359 -14.39,-13.18 -34.32,-19.762 -59.8,-19.762 h -51.73 V 862 c 0,-9.23 -2.74,-16.531 -8.23,-21.91 -5.5,-5.399 -12.97,-8.078 -22.4,-8.078 -9.22,0 -16.53,2.679 -21.92,8.078" />
      <path
         id="path226"
         style="fill:#ee1a6d;fill-opacity:1;fill-rule:nonzero;stroke:none"
         d="m 2925.36,840.41 c -5.6,5.391 -8.4,12.578 -8.4,21.59 v 155.16 h -46.45 c -9.67,0 -16.86,2.03 -21.58,6.1 -4.72,4.06 -7.08,10.26 -7.08,18.62 0,8.34 2.36,14.48 7.08,18.44 4.72,3.95 11.91,5.94 21.58,5.94 h 154.18 c 9.67,0 16.86,-1.99 21.58,-5.94 4.72,-3.96 7.08,-10.1 7.08,-18.44 0,-8.36 -2.36,-14.56 -7.08,-18.62 -4.72,-4.07 -11.91,-6.1 -21.58,-6.1 h -46.45 V 862 c 0,-9.012 -2.81,-16.199 -8.4,-21.59 -5.6,-5.379 -13.01,-8.07 -22.24,-8.07 -9.23,0 -16.64,2.691 -22.24,8.07" />
      <path
         id="path228"
         style="fill:#ee1a6d;fill-opacity:1;fill-rule:nonzero;stroke:none"
         d="m 3189.24,840.09 c -5.37,5.379 -8.07,12.68 -8.07,21.91 v 176.25 c 0,9 2.7,16.19 8.07,21.57 5.39,5.39 12.7,8.08 21.92,8.08 9.44,0 16.9,-2.69 22.4,-8.08 5.49,-5.38 8.24,-12.57 8.24,-21.57 V 862 c 0,-9.23 -2.75,-16.531 -8.24,-21.91 -5.5,-5.399 -12.96,-8.078 -22.4,-8.078 -9.22,0 -16.53,2.679 -21.92,8.078" />
      <path
         id="path230"
         style="fill:#ee1a6d;fill-opacity:1;fill-rule:nonzero;stroke:none"
         d="m 3410.64,856.73 c -17.46,17.125 -26.19,42.165 -26.19,75.106 v 106.414 c 0,9 2.68,16.19 8.07,21.57 5.38,5.39 12.57,8.08 21.57,8.08 9.01,0 16.2,-2.69 21.59,-8.08 5.38,-5.38 8.07,-12.57 8.07,-21.57 V 929.527 c 0,-16.687 3.73,-29.539 11.2,-38.543 7.45,-9.004 18.23,-13.507 32.29,-13.507 14.04,0 24.81,4.503 32.28,13.507 7.46,9.004 11.2,21.856 11.2,38.543 v 108.723 c 0,9 2.69,16.19 8.07,21.57 5.38,5.39 12.57,8.08 21.58,8.08 9,0 16.25,-2.69 21.74,-8.08 5.5,-5.38 8.24,-12.57 8.24,-21.57 V 931.836 c 0,-32.727 -8.84,-57.707 -26.52,-74.945 -17.69,-17.243 -43.21,-25.871 -76.59,-25.871 -33.61,0 -59.14,8.57 -76.6,25.71" />
      <path
         id="path232"
         style="fill:#ee1a6d;fill-opacity:1;fill-rule:nonzero;stroke:none"
         d="m 3959.41,1059.67 c 5.26,-5.5 7.9,-12.64 7.9,-21.42 V 859.031 c 0,-8.359 -2.43,-14.941 -7.25,-19.761 -4.83,-4.84 -11.2,-7.258 -19.11,-7.258 -7.69,0 -14,2.418 -18.95,7.258 -4.93,4.82 -7.41,11.402 -7.41,19.761 v 96.856 l -37.56,-69.192 c -3.74,-7.031 -7.68,-12.019 -11.85,-14.988 -4.18,-2.961 -9.12,-4.445 -14.83,-4.445 -5.71,0 -10.66,1.484 -14.82,4.445 -4.17,2.969 -8.14,7.957 -11.87,14.988 l -37.22,67.219 v -94.883 c 0,-8.133 -2.47,-14.66 -7.41,-19.609 -4.95,-4.934 -11.36,-7.41 -19.27,-7.41 -7.7,0 -14.01,2.418 -18.96,7.258 -4.93,4.82 -7.4,11.402 -7.4,19.761 v 179.219 c 0,8.78 2.69,15.92 8.07,21.42 5.38,5.48 12.24,8.23 20.58,8.23 5.94,0 11.32,-1.7 16.15,-5.11 4.84,-3.41 8.89,-8.29 12.19,-14.66 l 60.62,-113.982 60.29,113.982 c 6.81,13.17 16.04,19.77 27.68,19.77 8.34,0 15.15,-2.75 20.43,-8.23" />
      <path
         id="path234"
         style="fill:#ffffff;fill-opacity:1;fill-rule:nonzero;stroke:none"
         d="m 880.316,1310.11 c -62.961,0 -119.921,-34.89 -148.652,-91.03 l -0.644,-1.27 -0.606,-1.3 -197.922,-429.041 -1.445,-3.149 -1.133,-3.269 c -3.906,-11.301 -13.008,-40.129 -13.008,-64.039 0,-92.09 74.922,-167 167.004,-167 63.887,0 121.836,36.347 149.844,93.277 l 171.826,-77.328 c 22.4,-10.582 46.38,-15.949 71.28,-15.949 92.08,0 167,74.91 167,167 0,23.91 -9.1,52.738 -13.01,64.039 l -1.13,3.269 -1.46,3.16 c -191.33,414.51 -199.26,431.69 -200.89,434.78 v 0 c -29.202,54.18 -85.55,87.85 -147.054,87.85 v 0" />
      <g
         id="g236">
        <g
           clip-path="url(#clipPath242)"
           id="g238">
          <path
             id="path250"
             style="fill:url(#linearGradient248);fill-opacity:1;fill-rule:nonzero;stroke:none"
             d="m 987.855,678.469 -0.019,-0.008 -107.453,233.098 -81.121,-175.989 235.718,-106.09 0.01,0.02 c -21.01,10.078 -37.838,27.52 -47.135,48.969" />
        </g>
      </g>
      <g
         id="g252">
        <g
           clip-path="url(#clipPath258)"
           id="g254">
          <path
             id="path266"
             style="fill:url(#linearGradient264);fill-opacity:1;fill-rule:nonzero;stroke:none"
             d="m 1164.62,758.102 0.08,0.039 -194.618,422.029 c -0.547,1.32 -1.184,2.59 -1.789,3.88 l -1.453,3.16 -0.059,-0.03 c -0.324,0.65 -0.703,1.27 -1.054,1.9 7.382,-13.68 11.589,-29.34 11.589,-45.98 0,-14.34 -3.191,-27.91 -8.777,-40.15 l 0.059,-0.03 -88.215,-191.361 107.453,-233.098 0.019,0.008 c 14.915,-34.387 49.125,-58.457 89.005,-58.457 53.57,0 96.99,43.429 96.99,97 0,14.707 -3.37,28.597 -9.23,41.09" />
        </g>
      </g>
      <g
         id="g268">
        <g
           clip-path="url(#clipPath274)"
           id="g270">
          <path
             id="path282"
             style="fill:url(#linearGradient280);fill-opacity:1;fill-rule:nonzero;stroke:none"
             d="m 880.316,1240.11 c -37.687,0 -70.273,-21.54 -86.328,-52.93 l -0.058,0.03 -1.457,-3.16 c -0.606,-1.29 -1.239,-2.56 -1.785,-3.88 l -194.622,-422.029 0.079,-0.039 c -5.86,-12.493 -9.227,-26.383 -9.227,-41.09 0,-53.571 43.418,-97 96.992,-97 39.871,0 74.09,24.07 89.004,58.457 l 0.02,-0.008 195.664,424.459 -0.059,0.03 c 5.586,12.24 8.777,25.81 8.777,40.15 0,53.58 -43.425,97.01 -97,97.01" />
        </g>
      </g>
    </g>
  </g>
</svg>
